# xmcd
#
# Track frame offsets:
#	150
#	27864
#	58327
#	83359
#	110168
#	139967
#	151023
#	174840
#	190713
#	210815
#	233547
#	258944
#	277509
#	301824
#
# Disc length: 4459 seconds
#
# Revision: 2
# Processed by: cddbd v1.5.1PL2 Copyright (c) Steve Scherf et al.
# Submitted via: dBpowerAMP V4.0
#
DISCID=9f11690e
DTITLE=Various Artist - Lagaan
DYEAR=2001
DGENRE=Hindi Soundtrack
TTITLE0=Udit, Alka, Sukhvinder - Ghanan Ghanan
TTITLE1=Udit, Alka - Mitwa
TTITLE2=Asha, Udit - Radha Kaise na Jale
TTITLE3=Rahman, Srinivas - O Rey Chhori
TTITLE4=Rahman, Srionivas - Chale Chalo
TTITLE5=A r Rahman - Waltz For Romance
TTITLE6=Lata, Udit - O Pallanhaare 
TTITLE7=Anuradha, Srinivas - Lagaan
TTITLE8=pyar tune kya kiya - Rounde
TTITLE9=A r Rahman - Ae Jane Janam
TTITLE10=A r Rahman - Piya Ki Jogan
TTITLE11=A r Rahman - Pyaar Ka Jadoo
TTITLE12=A r Rahman - Ankhiyan Lad Gayi
TTITLE13=A r Rahman - So Rab Di
EXTD=Soundtrack Movie
EXTT0=
EXTT1=
EXTT2=
EXTT3=
EXTT4=
EXTT5=
EXTT6=
EXTT7=
EXTT8=
EXTT9=
EXTT10=
EXTT11=
EXTT12=
EXTT13=
PLAYORDER=
